<svg xmlns="http://www.w3.org/2000/svg" id="su-logo-blLayer_1" viewBox="0 0 300.3 60">
  <style>
    .su-logo-bl{fill:#f48b00}
  </style>
  <path d="M13.2 41.4c-2.6 0-4.9-.4-7.1-1.3C4 39.3 1.9 38 0 36.2l2.3-2.7C4 35 5.7 36.2 7.4 36.9c1.7.8 3.7 1.1 5.9 1.1s3.9-.5 5.2-1.5c1.3-1 2-2.3 2-3.9v-.1c0-.7-.1-1.4-.4-2-.2-.6-.7-1.1-1.3-1.6-.6-.5-1.5-.9-2.6-1.3s-2.5-.8-4.2-1.2c-1.7-.4-3.4-.9-4.7-1.4-1.4-.5-2.5-1.2-3.4-1.9-.9-.7-1.6-1.6-2-2.6-.4-1-.6-2.1-.6-3.5 0-1.3.3-2.4.8-3.5s1.3-2 2.2-2.8c1-.8 2.1-1.4 3.4-1.8 1.3-.4 2.7-.7 4.2-.7 2.4 0 4.4.3 6.2 1 1.8.7 3.5 1.7 5.1 3L21.1 15c-1.5-1.2-3-2.1-4.5-2.7s-3.1-.8-4.8-.8c-2.1 0-3.8.5-5 1.5C5.6 14 5 15.2 5 16.7v.1c0 .8.1 1.5.4 2.1.2.6.7 1.2 1.3 1.7.6.5 1.5 1 2.7 1.4s2.6.8 4.4 1.2c3.6.8 6.2 1.9 8 3.3 1.7 1.4 2.6 3.4 2.6 5.8v.1c0 1.4-.3 2.6-.8 3.8-.5 1.1-1.3 2.1-2.3 2.9-1 .8-2.1 1.4-3.5 1.8-1.5.3-3 .5-4.6.5zM33.1 30.5c.1 1.3.4 2.4.9 3.4s1.1 1.8 1.9 2.5c.8.7 1.6 1.2 2.6 1.5 1 .4 2 .5 3 .5 1.7 0 3.1-.3 4.3-.9C46.9 36.9 48 36 49 35l2.2 2c-1.2 1.4-2.6 2.4-4.1 3.3-1.5.8-3.4 1.2-5.7 1.2-1.6 0-3.2-.3-4.6-.9-1.5-.6-2.7-1.5-3.8-2.6-1.1-1.1-1.9-2.4-2.6-3.9-.6-1.5-.9-3.2-.9-5.1 0-1.7.3-3.3.9-4.9.6-1.5 1.4-2.8 2.4-4 1-1.1 2.2-2 3.6-2.7 1.4-.6 2.9-1 4.6-1 1.8 0 3.3.3 4.7 1 1.4.7 2.6 1.6 3.5 2.7 1 1.1 1.7 2.5 2.2 4 .5 1.5.7 3.2.7 4.9v1.2h-19zm15.4-2.9c-.1-1.1-.3-2.1-.7-3-.4-1-.9-1.8-1.5-2.5s-1.4-1.3-2.3-1.7c-.9-.4-1.9-.6-3.1-.6-1 0-2 .2-2.9.6-.9.4-1.7 1-2.4 1.7s-1.2 1.6-1.7 2.5c-.4 1-.7 2-.9 3.2h15.5zM65.4 41.4c-1.1 0-2.2-.2-3.3-.5-1.1-.3-2-.8-2.9-1.4-.8-.6-1.5-1.4-2-2.3-.5-.9-.8-2-.8-3.2v-.1c0-1.3.2-2.4.7-3.4.5-1 1.2-1.8 2.1-2.4.9-.6 2-1.1 3.2-1.5 1.2-.3 2.6-.5 4.1-.5 1.5 0 2.9.1 4 .3 1.1.2 2.2.4 3.3.7v-.7c0-2.1-.6-3.7-1.8-4.8-1.2-1.1-3-1.6-5.2-1.6-1.4 0-2.7.2-3.8.5-1.2.3-2.3.7-3.4 1.2l-1.1-2.9c1.3-.6 2.7-1.1 4-1.5 1.4-.4 2.9-.6 4.7-.6 3.4 0 5.9.9 7.7 2.6 1.7 1.7 2.5 4 2.5 7v14.6H74v-3.6c-.8 1.1-1.9 2-3.3 2.8-1.5.9-3.2 1.3-5.3 1.3zm.7-2.9c1.1 0 2.1-.2 3.1-.5.9-.3 1.8-.7 2.5-1.3.7-.6 1.3-1.2 1.7-2 .4-.8.6-1.6.6-2.6V30c-.9-.2-1.9-.5-3-.7-1.1-.2-2.4-.3-3.9-.3-2.2 0-3.9.4-5.1 1.3-1.2.9-1.8 2-1.8 3.5v.1c0 .7.2 1.4.5 2 .3.6.8 1.1 1.3 1.5.6.4 1.2.7 1.9.9.6.1 1.4.2 2.2.2zM85 17.1h3.6v6.2c.4-1 1-1.9 1.6-2.7.6-.8 1.4-1.5 2.2-2.1.8-.6 1.7-1.1 2.7-1.4 1-.3 2-.4 3.2-.4v3.8H98c-1.3 0-2.5.2-3.7.7-1.2.5-2.2 1.2-3 2.1s-1.5 2.1-2 3.4c-.5 1.4-.7 2.9-.7 4.7v9.5H85V17.1zM149.7 7.3h3.6v14c.8-1.3 1.8-2.4 3.1-3.3 1.3-.9 3-1.4 5-1.4 1.4 0 2.7.2 3.9.7 1.1.5 2.1 1.1 2.9 2 .8.8 1.4 1.9 1.8 3 .4 1.2.6 2.5.6 3.9V41H167V27c0-2.2-.6-4-1.7-5.2-1.1-1.3-2.8-1.9-4.9-1.9-1 0-2 .2-2.8.5-.9.4-1.6.9-2.3 1.5-.6.7-1.1 1.4-1.5 2.4-.4.9-.5 1.9-.5 3v13.6h-3.6V7.3zM191.7 41.4c-2 0-3.8-.3-5.5-.9-1.6-.6-3.1-1.5-4.2-2.7-1.2-1.2-2.1-2.7-2.7-4.4-.6-1.8-1-3.8-1-6V8.7h3.6v18.5c0 3.5.9 6.2 2.6 8.1 1.7 1.9 4.2 2.8 7.3 2.8 3 0 5.3-.9 7.1-2.7 1.8-1.8 2.6-4.4 2.6-8V8.7h3.6v18.5c0 2.4-.3 4.4-1 6.2-.6 1.8-1.6 3.3-2.7 4.5-1.2 1.2-2.6 2.1-4.2 2.7-1.7.5-3.5.8-5.5.8zM213.1 17.1h3.6v4.1c.8-1.3 1.8-2.4 3.1-3.3 1.3-.9 3-1.4 5-1.4 1.4 0 2.7.2 3.9.7 1.1.5 2.1 1.1 2.9 2 .8.8 1.4 1.9 1.8 3 .4 1.2.6 2.5.6 3.9v14.8h-3.6V27c0-2.2-.6-4-1.7-5.2-1.1-1.3-2.8-1.9-4.9-1.9-1 0-2 .2-2.8.5-.9.4-1.6.9-2.3 1.5-.6.7-1.1 1.4-1.5 2.4-.4.9-.5 1.9-.5 3v13.6h-3.6V17.1zM241.6 8h4.1v3.9h-4.1V8zm.3 9.1h3.6v23.8h-3.6V17.1zM255 20.2h-3.3v-3.1h3.3V15c0-2.7.7-4.7 2.1-6.1 1.2-1.2 2.9-1.8 5.1-1.8.8 0 1.5 0 2.1.1.6.1 1.2.2 1.8.5v3.1c-.6-.2-1.2-.3-1.8-.4-.5-.1-1.1-.2-1.7-.2-2.8 0-4.1 1.7-4.1 5.1v1.9h7.6v3h-7.5v20.7H255V20.2zM274.3 48.4c-1 0-1.9-.1-2.7-.3-.8-.2-1.6-.5-2.4-.9l1.2-2.8c.6.3 1.2.5 1.7.7.6.1 1.2.2 2 .2 1.1 0 2-.3 2.7-1 .7-.6 1.5-1.8 2.2-3.5l-10.8-23.7h3.9l8.7 19.9 7.7-19.9h3.8l-10 24.6c-1 2.5-2.1 4.2-3.4 5.2-1.3 1-2.8 1.5-4.6 1.5z"/>
  <g>
    <path d="M99.3 57.6l-7.8-8.9L113 37.1l.5.5z" class="su-logo-bl"/>
    <path d="M124 20.3h-7.8c-.4 0-.7-.3-.7-.7 0-.4.3-.7.7-.7h7.8c.4 0 .7.3.7.7-.1.4-.4.7-.7.7zM132.6 25.4h-16.3c-.4 0-.7-.3-.7-.7 0-.4.3-.7.7-.7h16.3c.4 0 .7.3.7.7 0 .4-.4.7-.7.7zM130 30.4h-13.9c-.4 0-.7-.3-.7-.7 0-.4.3-.7.7-.7H130c.4 0 .7.3.7.7 0 .4-.3.7-.7.7z"/>
    <path d="M124.2 2.4c-12.2 0-22.2 10-22.2 22.2 0 12.3 9.9 22.2 22.2 22.2 9 0 16.8-5.4 20.2-13.1h-9c-2.7 3.3-6.8 5.5-11.3 5.5-8 0-14.5-6.5-14.5-14.5s6.5-14.5 14.5-14.5c6.5 0 12.1 4.3 13.9 10.3h8c-2-10.4-11-18.1-21.8-18.1z" class="su-logo-bl"/>
  </g>
  <g>
    <path d="M295.7 14.7c-.6 0-1.1-.1-1.6-.3-.5-.2-.9-.5-1.3-.9s-.7-.8-.9-1.3c-.2-.5-.3-1-.3-1.6 0-.6.1-1.1.3-1.6.2-.5.5-.9.9-1.3s.8-.7 1.3-.9c.5-.2 1-.3 1.6-.3s1.1.1 1.6.3c.5.2.9.5 1.3.9s.7.8.9 1.3c.2.5.3 1 .3 1.6 0 .6-.1 1.1-.3 1.6-.2.5-.5.9-.9 1.3s-.8.7-1.3.9c-.5.2-1 .3-1.6.3zm0-.3c.5 0 1-.1 1.5-.3.5-.2.9-.5 1.2-.8.3-.3.6-.7.8-1.2.2-.5.3-.9.3-1.4 0-.5-.1-1-.3-1.4-.2-.5-.4-.8-.8-1.2-.3-.3-.7-.6-1.2-.8-.5-.2-.9-.3-1.5-.3-.5 0-1 .1-1.5.3-.5.2-.8.5-1.2.8-.3.3-.6.7-.8 1.2-.2.5-.3.9-.3 1.4 0 .5.1 1 .3 1.4.2.5.4.8.8 1.2.3.3.7.6 1.2.8.5.2 1 .3 1.5.3zm-1.6-6h1.9c.3 0 .5 0 .7.1s.4.2.5.3c.1.1.2.2.3.4.1.1.1.3.1.5 0 .3-.1.6-.3.8-.2.2-.5.3-.8.4l1.3 1.7h-.8l-1.2-1.6h-1.1v1.6h-.6V8.4zm1.8 2c.3 0 .5-.1.7-.2.2-.1.3-.3.3-.6 0-.2-.1-.4-.3-.5-.1-.1-.3-.1-.6-.1h-1.2v1.5h1.1z"/>
  </g>
</svg>